<?xml version="1.0" encoding="UTF-8"?>
<svg xmlns="http://www.w3.org/2000/svg" xmlns:xlink="http://www.w3.org/1999/xlink" width="24px" height="24px" viewBox="0 0 24 24" version="1.1">
<g id="surface1">
<path style="fill-rule:nonzero;fill:rgb(27.450982%,98.431373%,90.196079%);fill-opacity:1;stroke-width:1;stroke-linecap:butt;stroke-linejoin:miter;stroke:rgb(27.450982%,98.431373%,90.196079%);stroke-opacity:1;stroke-miterlimit:4;" d="M 460.583333 412.833333 L 326 179.666667 L 326 65.666667 L 334.75 65.666667 C 342 65.666667 347.916667 59.833333 347.916667 52.583333 C 347.916667 45.333333 342 39.416667 334.75 39.416667 L 177.25 39.416667 C 160.083333 39.75 160 65.416667 177.25 65.666667 L 186 65.666667 L 186 179.666667 L 51.416667 412.833333 C 36.083333 439.333333 55.25 472.583333 85.916667 472.583333 L 426.083333 472.583333 C 456.75 472.583333 475.916667 439.333333 460.583333 412.833333 Z M 437.833333 439.5 C 435.5 443.75 431 446.333333 426.083333 446.333333 L 85.916667 446.333333 C 81.083333 446.333333 76.583333 443.75 74.166667 439.5 C 71.666667 435.333333 71.666667 430.166667 74.166667 425.916667 L 151.666667 291.666667 C 162.083333 295.583333 174.666667 298.333333 192 298.333333 C 224 298.333333 240 289.166667 256 280.083333 C 272 270.916667 288 261.833333 320 261.833333 C 328.166667 261.75 336.333333 262.5 344.416667 264 L 437.833333 425.916667 C 440.333333 430.083333 440.333333 435.333333 437.833333 439.5 Z M 437.833333 439.5 " transform="matrix(0.046875,0,0,0.046875,0,0)"/>
<path style="fill-rule:nonzero;fill:rgb(27.450982%,98.431373%,90.196079%);fill-opacity:1;stroke-width:1;stroke-linecap:butt;stroke-linejoin:miter;stroke:rgb(27.450982%,98.431373%,90.196079%);stroke-opacity:1;stroke-miterlimit:4;" d="M 218 406.916667 C 218.416667 429.916667 252.666667 429.916667 253 406.916667 C 252.666667 383.916667 218.416667 383.916667 218 406.916667 Z M 218 406.916667 " transform="matrix(0.046875,0,0,0.046875,0,0)"/>
<path style="fill-rule:nonzero;fill:rgb(27.450982%,98.431373%,90.196079%);fill-opacity:1;stroke-width:1;stroke-linecap:butt;stroke-linejoin:miter;stroke:rgb(27.450982%,98.431373%,90.196079%);stroke-opacity:1;stroke-miterlimit:4;" d="M 148 354.416667 C 148.416667 377.416667 182.666667 377.416667 183 354.416667 C 182.666667 331.416667 148.416667 331.416667 148 354.416667 Z M 148 354.416667 " transform="matrix(0.046875,0,0,0.046875,0,0)"/>
<path style="fill-rule:nonzero;fill:rgb(27.450982%,98.431373%,90.196079%);fill-opacity:1;stroke-width:1;stroke-linecap:butt;stroke-linejoin:miter;stroke:rgb(27.450982%,98.431373%,90.196079%);stroke-opacity:1;stroke-miterlimit:4;" d="M 312.833333 328.166667 C 313.25 351.166667 347.5 351.166667 347.833333 328.166667 C 347.5 305.166667 313.25 305.166667 312.833333 328.166667 Z M 312.833333 328.166667 " transform="matrix(0.046875,0,0,0.046875,0,0)"/>
</g>
</svg>
